<svg xmlns="http://www.w3.org/2000/svg" preserveAspectRatio="xMidYMid" width="100" height="100" viewBox="0 0 100 100"><defs><style>.cls-1 { fill: #151719; fill-rule: evenodd; }</style></defs><path d="M50 100c-27.614 0-50-22.386-50-50 0-12.338 4.478-23.624 11.885-32.345-.593-.926-.948-2.02-.948-3.202 0-3.29 2.668-5.957 5.958-5.957 1.33 0 2.547.452 3.538 1.189 8.282-6.084 18.502-9.685 29.567-9.685 27.614 0 50 22.386 50 50s-22.386 50-50 50zm0-98c-10.523 0-20.247 3.395-28.158 9.137.637.948 1.01 2.088 1.01 3.316 0 3.29-2.667 5.957-5.957 5.957-1.381 0-2.635-.488-3.645-1.276-7.017 8.345-11.25 19.109-11.25 30.866 0 26.51 21.49 48 48 48s48-21.49 48-48-21.49-48-48-48zm.137 16.662c-.019.519-.045.843-.246 1.043-.293.295-1.079.247-1.964.247-2.495 0-3.79-.062-6.576-.062-2.041 0-4.339.062-6.574.062-.941 0-1.617-.012-1.844-.369-.243-.382-.121-1.919-.121-2.519v-6.513c0-.501-.052-1.03.059-1.231.075-.13.408-.273.616-.305h.122c.638-.129 1.685-.124 1.967.305.212.326.123 1.161.123 1.845v3.933c0 .616-.108 1.581.061 1.842.249.389 2.36.297 3.256.247.202-.013.325-.025.493-.062.177-.041.354-.046.429-.123.283-.295.154-1.075.123-1.842-.073-1.719 0-2.384 0-4.057 0-.743-.075-1.525.185-1.842.31-.385 1.973-.487 2.395-.064.529.536.204 2.84.184 3.813-.007.444 0 1.331 0 2.024 0 .709-.106 1.602.124 1.906.075.101.273.142.429.185.584.154 2.031.104 2.828.062.425-.023.791-.041.92-.185.233-.26.123-1.03.123-1.904 0-1.546-.086-3.284 0-4.978l.036-.857c.008-.183.161-.229.324-.249.323-.041.568-.067 1.177-.061.308.003.567-.012.798.062.195.061.433.196.493.305.21.403.06 1.833.06 2.642 0 2.36.098 4.175 0 6.7zm-27.465 28.512c.868 0 1.438-.231 1.659.491.157.512.125 1.78-.184 2.088-.462.465-2.493.247-3.502.247h-7.496c-.804 0-3.089.166-3.44-.247-.185-.217-.091-1.39-.096-2.018-.001-.089.005-.236.095-.346.085-.105.155-.149.277-.177.231-.054.785-.029 1.197-.038.377-.01.793.027 1.168-.123l.247-.124c.148-.213.108-1.313.123-1.905.096-4.084 0-7.93 0-12.166 0-.632.082-1.667-.123-1.904-.382-.441-2.312.075-2.765-.372-.196-.188-.19-.579-.185-1.103.002-.327-.057-.681.062-.922l.056-.106.067-.079c.335-.381 2.082-.246 3.071-.246h10.077c.233-.012.998-.064 1.155.145l.135.225c.193.554.188 1.967-.246 2.212-.272.152-.825.054-1.29.061-.422.006-.985-.063-1.228.121-.405.308-.247 2.13-.247 3.381 0 3.626-.071 7.293.062 10.629.025.624-.121 1.708.123 2.029.217.287.716.247 1.228.247zm-4.302-16.222c-.276-.281-1.982-.143-2.302-.133-.162.001-.34.021-.403.078-.075.07-.126.158-.157.325-.031.383-.024.96-.024 1.449v6.269c0 2.464-.009 3.927.06 6.205.031.912-.056 1.698.185 1.906.29.248 2.339.233 2.641-.124.227-.265.187-1.101.187-1.844v-10.2c0-.812.213-3.532-.187-3.931zm14.501 6.819c0-1.17-.121-2.903.457-3.604.305-.369.946-.256 3.291-.268.71-.003 1.668.007 2.477.012.291.001.698-.015.842-.134.269-.22.339-1.566.246-2.272-.092-.689-.219-.697-.984-.738-.775-.042-1.949 0-2.702 0-1.242 0-2.991.222-3.442-.187-.223-.2-.206-.612-.185-1.166.012-.258-.048-.553 0-.738.005-.017.239-.384.308-.429.295-.196 1.107-.123 1.904-.123h12.043c.713 0 1.354-.092 2.029-.062.076.004.41-.073.614.062.454.3.57 2.154.062 2.52-.368.262-1.179.123-1.66.123-1.59 0-2.658-.051-4.362 0-.731.021-.949.01-1.045.676-.083.556-.073 2.016.185 2.274.366.365 2.675.182 3.442.182.542 0 1.155.012 1.78 0l.862-.011c1.105.002 1.048.512 1.048 1.906l.056 12.054c0 .799.013 1.752-.134 1.934-.124.154-.428.214-.779.234v.001h-.011l-.43.007-.118.002c-.563 0-.685-.022-.876-.108-.11-.049-.195-.111-.237-.25-.04-.134-.062-.215-.08-.456-.022-.294-.03-1.694-.037-2.454-.026-3.03.018-5.344-.01-8.571-.004-.436.019-.847-.074-1.199-.108-.413-.545-.458-.927-.463l-.155.003c-.417-.003-.764.022-.927.191-.261.273-.182 2.641-.182 3.264l.051 7.443c0 1.057.042 2.078-.109 2.335-.103.172-.372.184-1.294.178v-.003c-.815.001-.935.015-1.083-.192-.17-.236-.188-.864-.187-1.522.006-3.347.01-6.384-.011-9.891-.004-.604.063-1.329-.07-1.538-.162-.252-1.751-.324-1.942-.018-.143.256-.143.584-.148 3.023-.006 2.976-.033 5.399 0 8.483.008.576.058 1.116-.177 1.427-.211.278-.704.233-1.236.231-.625-.005-.908-.02-1.091-.297-.181-.273-.116-.816-.116-1.557 0-1.649-.018-3.265-.014-4.917.003-1.21-.007-2.226-.007-3.37 0-2.08.031-2.696-.173-3.042-.131-.22-.378-.241-1.425-.213-.403.01-.478.122-.478.443-.002 2.019.002 4.382.002 6.378 0 1.43-.033 3.423 0 5.015.005.372.013.846-.124 1.169-.214.507-1.31.606-2.103.391-.14-.039-.398-.118-.492-.247-.195-.273-.123-1.131-.121-1.904.003-3.511.061-6.388.059-10.017z" class="cls-1"/></svg>